<svg width="91" height="100" viewBox="0 0 91 100" fill="none" xmlns="http://www.w3.org/2000/svg">
<path d="M36.7319 13.8966C36.7319 12.3924 37.9721 11.1731 39.502 11.1731H50.582C52.1119 11.1731 53.352 12.3924 53.352 13.8966C53.352 15.4007 52.1119 16.62 50.582 16.62H39.502C37.9721 16.62 36.7319 15.4007 36.7319 13.8966Z" fill="#333333"/>
<path fill-rule="evenodd" clip-rule="evenodd" d="M71.0487 34.7783C70.0421 35.5708 68.7348 36.2025 67.1575 36.7164C67.227 37.4317 67.2625 38.1564 67.2625 38.8889C67.2625 51.1619 57.3168 61.1111 45.0481 61.1111C32.7793 61.1111 22.8336 51.1619 22.8336 38.8889C22.8336 38.1564 22.8692 37.4317 22.9386 36.7164C21.3614 36.2025 20.0538 35.5708 19.0475 34.7783C17.741 33.7503 16.8677 32.3769 16.7647 30.7289C16.6691 29.1969 17.2731 27.8983 17.8801 26.9814C18.5002 26.0453 19.291 25.2519 19.9883 24.6433C20.3765 24.3042 20.7624 23.9997 21.1168 23.7364C21.0115 23.1661 20.8952 22.4778 20.7796 21.6797C20.4159 19.1669 20.0568 15.5608 20.0568 11.1111C20.0568 10.2398 20.4287 9.589 20.6019 9.31258C20.8185 8.96755 21.0748 8.66964 21.3047 8.43028C21.7704 7.94505 22.3688 7.45133 23.0269 6.97411C24.3598 6.00758 26.1952 4.92317 28.3714 3.90667C32.7113 1.87975 38.6709 0 45.0481 0C51.4253 0 57.3849 1.87975 61.7244 3.90667C63.9009 4.92317 65.7364 6.00758 67.0692 6.97411C67.7273 7.45133 68.3257 7.94505 68.7914 8.43028C69.0213 8.66964 69.2776 8.96755 69.4939 9.31258C69.6675 9.589 70.0393 10.2398 70.0393 11.1111C70.0393 15.5614 69.6803 19.1675 69.3165 21.68C69.2007 22.4781 69.0846 23.1661 68.9794 23.7367C69.3337 23.9997 69.7197 24.3042 70.1079 24.6433C70.8051 25.2519 71.5957 26.0453 72.2158 26.9814C72.8231 27.8983 73.427 29.1969 73.3312 30.7289C73.2285 32.3769 72.3549 33.7503 71.0487 34.7783ZM25.6154 11.9956C25.6588 15.7389 25.9695 18.7661 26.2761 20.8831C26.348 21.3808 26.4199 21.8281 26.4879 22.2222H63.6082C63.6763 21.8283 63.7482 21.3811 63.8201 20.8833C64.1267 18.7667 64.4374 15.7394 64.4807 11.9956C64.3127 11.8519 64.0911 11.6761 63.8095 11.4719C62.8082 10.7459 61.2874 9.83378 59.375 8.94056C55.5372 7.14803 50.3898 5.55556 45.0481 5.55556C39.7063 5.55556 34.559 7.14803 30.7212 8.94056C28.8088 9.83378 27.2879 10.7459 26.2866 11.4719C26.005 11.6761 25.7834 11.8519 25.6154 11.9956ZM25.022 27.7778L25.012 27.7844C24.6233 28.0453 24.1221 28.4081 23.6398 28.8289C23.1441 29.2619 22.7523 29.6839 22.5099 30.0497C22.4371 30.16 22.3899 30.2458 22.3599 30.3092C22.391 30.3381 22.431 30.3725 22.4818 30.4125C22.8956 30.7383 23.7905 31.2208 25.5346 31.6942C25.8784 31.7875 26.2477 31.8783 26.6431 31.9664L26.6668 31.9714C28.0613 32.2806 29.7765 32.5533 31.8694 32.7719C34.8331 33.0814 38.5615 33.2836 43.2196 33.3253C43.8138 33.3306 44.4233 33.3333 45.0481 33.3333C54.0077 33.3333 59.8032 32.775 63.4291 31.9714L63.453 31.9664C63.8484 31.8783 64.2175 31.7875 64.5615 31.6942C66.3053 31.2208 67.2006 30.7383 67.6143 30.4125C67.6651 30.3725 67.7051 30.3381 67.7362 30.3092C67.706 30.2458 67.659 30.16 67.586 30.0497C67.3439 29.6839 66.9521 29.2619 66.4561 28.8289C65.9741 28.4081 65.4728 28.0453 65.0841 27.7844L65.0741 27.7778H25.022ZM44.2911 38.8889C51.6297 38.8889 57.3135 38.5006 61.675 37.8214C61.6972 38.1742 61.7086 38.53 61.7086 38.8889C61.7086 48.0936 54.2493 55.5556 45.0478 55.5556C35.8463 55.5556 28.387 48.0936 28.387 38.8889C28.387 38.595 28.3945 38.3031 28.4095 38.0131C32.4705 38.5736 37.6779 38.8889 44.2911 38.8889ZM23.0505 91.3261C22.9075 92.345 22.8336 93.3861 22.8336 94.4444V97.2222C22.8336 98.7564 21.5905 100 20.0568 100C19.0336 100 18.1397 99.4464 17.658 98.6222C15.8511 99.5997 13.6816 99.9147 11.5407 99.3408L6.17644 97.9028C1.73242 96.7117 -0.904853 92.1422 0.285924 87.6967L2.44197 79.6472C3.63275 75.2017 8.20073 72.5636 12.6447 73.7547L18.009 75.1928C19.8761 75.6931 21.4244 76.79 22.5038 78.2236C27.5456 71.2236 35.7649 66.6667 45.0481 66.6667C54.3281 66.6667 62.5447 71.2206 67.5871 78.2164C68.6662 76.7875 70.2117 75.6942 72.0747 75.1947L77.4392 73.7569C81.8832 72.5658 86.451 75.2039 87.6417 79.6494L89.7979 87.6989C90.9886 92.1444 88.3512 96.7139 83.9072 97.905L78.543 99.3431C76.4054 99.9158 74.2392 99.6031 72.434 98.6292C71.9514 99.4494 71.0598 100 70.0393 100C68.5057 100 67.2625 98.7564 67.2625 97.2222V94.4444C67.2625 93.3861 67.1884 92.345 67.0454 91.3261L52.5951 95.1994C51.2662 98.0356 48.3863 100 45.0481 100C41.7098 100 38.83 98.0356 37.501 95.1992L23.0505 91.3261ZM37.0503 89.3269C37.8015 86.7536 39.7599 84.6953 42.2713 83.8075V72.3942C34.2169 73.3989 27.5015 78.7172 24.5081 85.965L37.0503 89.3269ZM65.5881 85.965C62.5947 78.7172 55.8793 73.3989 47.8249 72.3942V83.8075C50.3359 84.6953 52.2947 86.7536 53.0455 89.3269L65.5881 85.965ZM71.5485 83.9631C71.1517 82.4814 72.0308 80.958 73.5123 80.5611L78.8765 79.1233C80.3579 78.7261 81.8804 79.6056 82.2775 81.0875L84.4334 89.1367C84.8305 90.6186 83.9514 92.1417 82.4699 92.5389L77.1057 93.9767C75.6243 94.3739 74.1015 93.4944 73.7047 92.0125L71.5485 83.9631ZM11.2072 79.1211C9.72603 78.7239 8.20323 79.6033 7.80642 81.0853L5.65029 89.1344C5.25337 90.6164 6.13245 92.1397 7.61371 92.5367L12.9782 93.9744C14.4594 94.3717 15.9822 93.4922 16.379 92.0103L18.5352 83.9608C18.932 82.4792 18.0528 80.9558 16.5717 80.5589L11.2072 79.1211ZM47.8249 91.6667C47.8249 93.2008 46.5817 94.4444 45.0481 94.4444C43.5144 94.4444 42.2713 93.2008 42.2713 91.6667C42.2713 90.1325 43.5144 88.8889 45.0481 88.8889C46.5817 88.8889 47.8249 90.1325 47.8249 91.6667Z" fill="#333333"/>
</svg>
