<svg width="96" height="100" viewBox="0 0 96 100" fill="none" xmlns="http://www.w3.org/2000/svg">
<path d="M94.9773 72.1589C90.6167 80.9684 83.7938 88.2841 75.1423 93.2786C51.1813 107.113 20.5537 98.9068 6.72094 74.9475C-7.11187 50.9865 1.09095 20.3623 25.0554 6.52444L25.0537 6.52104C31.4093 2.85212 38.3936 0.641251 45.6159 0.00569016C46.4367 -0.065683 47.1606 0.542688 47.232 1.36348C47.2711 1.8342 47.0893 2.27094 46.7732 2.57343L46.7749 2.57513C39.901 9.08368 35.5965 17.657 34.2812 26.7299C32.9914 35.6209 34.5684 44.9895 39.4065 53.369C43.383 60.2413 48.9688 65.5161 55.4824 69.0525C55.4943 69.0457 55.5062 69.0389 55.5164 69.0321L64.5961 62.9653L67.2607 52.4412C67.4612 51.6391 68.2735 51.1514 69.0756 51.3519C69.4818 51.4539 69.808 51.7139 70.0035 52.0486L76.0702 61.1283L86.5943 63.7912C87.3964 63.9918 87.8842 64.8041 87.6836 65.6061C87.5817 66.014 87.3234 66.3386 86.9869 66.5357L77.9089 72.6024L77.5452 74.035C82.7844 73.7546 88.0371 72.4716 93.0145 70.1112C93.7622 69.7594 94.6527 70.0789 95.0045 70.8249C95.2135 71.2667 95.1863 71.7578 94.9773 72.1589ZM69.5226 73.6849C71.1318 73.9126 72.8261 74.0469 74.4456 74.0843L75.1457 71.3177L75.1491 71.3194C75.2358 70.971 75.4465 70.655 75.766 70.4391L82.6059 65.8696L74.7872 63.8898V63.8881C74.4405 63.8014 74.1227 63.5907 73.9086 63.2695L69.339 56.4296L67.3593 64.2484H67.3559C67.2692 64.595 67.0585 64.9128 66.739 65.1269L59.8991 69.6982L67.7178 71.6763V71.6797C68.0645 71.7663 68.3806 71.9771 68.5964 72.2982L69.5226 73.6849ZM80.5395 22.422L75.0778 32.7167L74.364 45.5112C74.3029 46.6141 73.1201 47.2632 72.1515 46.7398L61.8584 41.2781L49.0622 40.5644C47.9593 40.5032 47.3102 39.3204 47.8336 38.3518L53.2953 28.0588L54.0091 15.2626C54.0703 14.1597 55.253 13.5105 56.2216 14.0339L66.5164 19.4957L79.3109 20.2094C80.424 20.2706 81.0612 21.4754 80.5395 22.422ZM72.2806 31.6087L76.8128 23.066L66.0576 22.4662C65.8366 22.4594 65.6157 22.4033 65.4084 22.2945L56.8657 17.7606L56.2658 28.5176C56.259 28.7368 56.203 28.9594 56.0942 29.1667L51.5603 37.7094L62.3173 38.3093C62.5365 38.3161 62.7574 38.3705 62.9664 38.4809L71.5091 43.0131L72.109 32.2579C72.1158 32.0387 72.1702 31.816 72.2806 31.6087ZM84.4667 82.1256C86.6844 79.7635 88.6268 77.1992 90.2854 74.4819C80.9966 77.8229 71.0792 77.8806 62.0386 75.0563C51.7676 71.8496 42.6268 64.9145 36.8183 54.8662C31.6302 45.8783 29.9359 35.835 31.3175 26.3084C32.5274 17.973 36.0876 10.0336 41.7159 3.54206C36.419 4.5022 31.2852 6.3766 26.5525 9.10917L26.5508 9.10747L26.5457 9.10917C15.2874 15.6092 7.72696 26.0637 4.60693 37.7094C1.4869 49.3552 2.80731 62.187 9.30907 73.4487C22.3177 95.9788 51.1321 103.696 73.6554 90.6921C77.7577 88.3232 81.3739 85.4224 84.4667 82.1256Z" fill="black"/>
</svg>
