<svg width="123" height="100" viewBox="0 0 123 100" fill="none" xmlns="http://www.w3.org/2000/svg">
<path d="M120.254 96.4246H110.564C110.704 95.9603 110.775 95.4782 110.775 94.9935V89.9758C111.559 89.4326 112.2 88.7076 112.642 87.8629C113.084 87.0182 113.316 86.0789 113.316 85.1254V67.8904C113.317 66.3079 112.987 64.7427 112.346 63.2956H113.412C114.581 63.2943 115.702 62.8293 116.529 62.0026C117.356 61.1759 117.821 60.055 117.822 58.8859V56.979C117.821 55.8099 117.356 54.689 116.529 53.8623C115.702 53.0356 114.581 52.5706 113.412 52.5693H110.314C109.156 52.5689 108.045 53.0254 107.222 53.8395L104.177 45.9233C103.745 44.8115 102.987 43.8557 102.004 43.1803C101.02 42.5049 99.8562 42.1411 98.6631 42.1363H64.377C63.184 42.1411 62.0201 42.5049 61.0366 43.1803C60.0532 43.8558 59.2958 44.8115 58.863 45.9233L55.7918 53.9081C55.3833 53.4991 54.8981 53.1747 54.364 52.9535C53.8299 52.7322 53.2574 52.6185 52.6793 52.6189H49.5806C48.4115 52.6202 47.2906 53.0852 46.4639 53.9119C45.6372 54.7386 45.1722 55.8595 45.1709 57.0286V58.9355C45.1722 60.1046 45.6372 61.2255 46.4639 62.0522C47.2906 62.8789 48.4115 63.3439 49.5806 63.3452H50.6728C50.0462 64.7786 49.7232 66.3261 49.724 67.8904V85.1254C49.7243 86.0789 49.9556 87.0182 50.3981 87.8629C50.8406 88.7076 51.481 89.4326 52.2647 89.9758V94.9934C52.2652 95.4782 52.3362 95.9603 52.4758 96.4246H18.2392V79.2965L37.8264 56.7684C37.8305 56.7639 37.8343 56.7591 37.8385 56.7545L57.1935 34.4934C57.2032 34.4828 57.2122 34.4719 57.2216 34.4611L66.3307 23.9842C66.3381 23.9764 66.3446 23.9681 66.3517 23.9601L76.2179 12.6126C76.5779 12.1994 76.8529 11.7193 77.0272 11.1997C77.2015 10.6801 77.2717 10.1313 77.2337 9.58458C77.1957 9.03786 77.0503 8.504 76.8058 8.01353C76.5614 7.52305 76.2226 7.08559 75.8089 6.72615L69.2437 1.01917C68.4076 0.295647 67.319 -0.067135 66.2161 0.010261C65.1132 0.0876569 64.0859 0.598925 63.3591 1.43212L4.29115 69.3655C2.98146 70.163 1.89886 71.2839 1.14738 72.6205C0.395893 73.9572 0.00078075 75.4646 5.1642e-09 76.998L5.1642e-09 98.2123C-1.78395e-05 98.4471 0.0462107 98.6795 0.136046 98.8964C0.225881 99.1133 0.357563 99.3104 0.523571 99.4764C0.68958 99.6424 0.886664 99.7741 1.10357 99.864C1.32047 99.9538 1.55295 100 1.78772 100H120.254C120.728 100 121.183 99.8117 121.518 99.4764C121.853 99.1411 122.042 98.6864 122.042 98.2123C122.042 97.7381 121.853 97.2834 121.518 96.9482C121.183 96.6129 120.728 96.4246 120.254 96.4246ZM66.0568 3.77897C66.1606 3.65952 66.3075 3.58606 66.4653 3.57467C66.6231 3.56328 66.7791 3.6149 66.8989 3.71821L73.4623 9.42356C73.5217 9.4749 73.5703 9.5375 73.6054 9.60773C73.6405 9.67797 73.6613 9.75445 73.6667 9.83278C73.6727 9.91107 73.6628 9.98977 73.6377 10.0642C73.6126 10.1386 73.5727 10.2071 73.5205 10.2657L65.1611 19.8802L59.2526 11.6042L66.0568 3.77897ZM56.8402 14.3787L62.7488 22.6548L55.9867 30.432L49.9696 22.2805L56.8402 14.3787ZM47.5661 25.0448L53.5833 33.1964L46.5125 41.3288L40.6277 33.0245L47.5661 25.0448ZM38.2134 35.8011L44.0982 44.1056L36.6364 52.6877L30.6774 44.4682L38.2134 35.8011ZM28.2691 47.2379L34.2282 55.4575L27.2806 63.4483L21.3718 55.1703L28.2691 47.2379ZM14.6637 96.4246H3.57544V76.998C3.57707 75.5761 4.14264 74.2129 5.14808 73.2075C6.15351 72.202 7.5167 71.6365 8.9386 71.6348H9.30057C10.7225 71.6365 12.0857 72.202 13.0911 73.2075C14.0965 74.2129 14.6621 75.5761 14.6637 76.998V96.4246ZM10.1301 68.0993L18.9594 57.9449L24.8682 66.2229L17.8287 74.3193C17.2983 72.641 16.2853 71.156 14.9162 70.0498C13.547 68.9436 11.8824 68.2652 10.1301 68.0993ZM62.2001 47.2068C62.371 46.7679 62.67 46.3906 63.0583 46.1239C63.4465 45.8573 63.906 45.7136 64.377 45.7117H98.6631C99.1341 45.7136 99.5937 45.8572 99.982 46.1239C100.37 46.3905 100.669 46.7679 100.84 47.2068L105.137 58.3799H57.9027L62.2001 47.2068ZM52.6793 59.7698H49.5806C49.3594 59.7695 49.1474 59.6815 48.991 59.5251C48.8346 59.3687 48.7466 59.1567 48.7463 58.9355V57.0286C48.7466 56.8074 48.8346 56.5954 48.991 56.439C49.1474 56.2826 49.3594 56.1946 49.5806 56.1943H52.6793C52.9005 56.1946 53.1126 56.2826 53.269 56.439C53.4254 56.5954 53.5133 56.8074 53.5136 57.0286V58.9355C53.5133 59.1567 53.4254 59.3687 53.269 59.5251C53.1126 59.6815 52.9005 59.7695 52.6793 59.7698ZM61.8784 94.9935C61.878 95.3729 61.7271 95.7366 61.4588 96.0049C61.1905 96.2732 60.8267 96.4241 60.4473 96.4246H57.2713C56.8919 96.4241 56.5281 96.2732 56.2598 96.0049C55.9915 95.7366 55.8406 95.3729 55.8402 94.9935V91.0332H61.8784L61.8784 94.9935ZM65.2428 96.4246C65.3824 95.9603 65.4535 95.4782 65.4539 94.9935V91.0332H97.5863V94.9935C97.5867 95.4782 97.6577 95.9603 97.7973 96.4246H65.2428ZM67.0854 87.4578L69.202 85.1263C69.4815 84.8189 69.8221 84.5732 70.2019 84.405C70.5818 84.2368 70.9926 84.1497 71.408 84.1493H91.6007C92.0217 84.1495 92.4379 84.2388 92.822 84.4114C93.206 84.584 93.5492 84.836 93.8288 85.1507L95.877 87.4578H67.0854ZM107.2 94.9935C107.199 95.3729 107.049 95.7366 106.78 96.0049C106.512 96.2732 106.148 96.4241 105.769 96.4246H102.593C102.213 96.4241 101.85 96.2732 101.581 96.0049C101.313 95.7366 101.162 95.3729 101.162 94.9935V91.0332H107.2L107.2 94.9935ZM109.741 85.1254C109.74 85.7438 109.494 86.3366 109.057 86.7739C108.619 87.2111 108.027 87.4571 107.408 87.4578H100.658L96.5025 82.7769C95.8873 82.0844 95.1324 81.5301 94.2875 81.1504C93.4426 80.7707 92.5269 80.5742 91.6007 80.5739H71.408C70.494 80.5746 69.5902 80.7662 68.7545 81.1363C67.9188 81.5063 67.1695 82.0468 66.5546 82.7231L62.2566 87.4578H55.6319C55.0135 87.4571 54.4206 87.2111 53.9834 86.7739C53.5461 86.3366 53.3001 85.7438 53.2994 85.1254V67.8904C53.2968 65.9162 54.0475 64.0153 55.3984 62.5756C55.5859 62.3752 55.7628 62.1671 55.9344 61.9553H107.106C107.277 62.1671 107.454 62.3751 107.642 62.5754C108.993 64.0152 109.743 65.9161 109.741 67.8904L109.741 85.1254ZM109.479 58.8859V56.979C109.48 56.7578 109.568 56.5458 109.724 56.3894C109.88 56.233 110.092 56.145 110.314 56.1448H113.412C113.633 56.145 113.845 56.233 114.002 56.3894C114.158 56.5458 114.246 56.7578 114.247 56.979V58.8859C114.246 59.1071 114.158 59.3192 114.002 59.4755C113.845 59.6319 113.633 59.7199 113.412 59.7202H110.314C110.092 59.7199 109.88 59.6319 109.724 59.4755C109.568 59.3191 109.48 59.1071 109.479 58.8859ZM62.4347 66.5899C61.374 66.5899 60.3371 66.9044 59.4551 67.4937C58.5732 68.0831 57.8858 68.9207 57.4798 69.9007C57.0739 70.8806 56.9677 71.959 57.1746 72.9993C57.3816 74.0397 57.8924 74.9953 58.6424 75.7454C59.3925 76.4954 60.3481 77.0062 61.3884 77.2132C62.4288 77.4201 63.5071 77.3139 64.4871 76.908C65.4671 76.502 66.3047 75.8146 66.8941 74.9327C67.4834 74.0507 67.7979 73.0138 67.7979 71.953C67.7963 70.5311 67.2307 69.168 66.2253 68.1625C65.2198 67.1571 63.8566 66.5915 62.4347 66.5899ZM62.4347 73.7408C62.0812 73.7408 61.7355 73.6359 61.4415 73.4395C61.1476 73.243 60.9184 72.9638 60.7831 72.6372C60.6478 72.3105 60.6124 71.9511 60.6814 71.6043C60.7504 71.2575 60.9206 70.939 61.1706 70.6889C61.4206 70.4389 61.7392 70.2687 62.086 70.1997C62.4328 70.1307 62.7922 70.1661 63.1189 70.3014C63.4455 70.4367 63.7247 70.6659 63.9212 70.9598C64.1176 71.2538 64.2225 71.5995 64.2225 71.953C64.2219 72.427 64.0334 72.8814 63.6983 73.2166C63.3631 73.5517 62.9087 73.7403 62.4347 73.7408ZM100.605 66.5899C99.5446 66.5899 98.5077 66.9044 97.6258 67.4937C96.7438 68.0831 96.0564 68.9207 95.6505 69.9007C95.2445 70.8806 95.1383 71.959 95.3453 72.9993C95.5522 74.0397 96.063 74.9953 96.813 75.7454C97.5631 76.4954 98.5187 77.0062 99.5591 77.2132C100.599 77.4201 101.678 77.3139 102.658 76.908C103.638 76.502 104.475 75.8146 105.065 74.9327C105.654 74.0507 105.969 73.0138 105.969 71.953C105.967 70.5311 105.401 69.168 104.396 68.1625C103.39 67.1571 102.027 66.5915 100.605 66.5899ZM100.605 73.7408C100.252 73.7408 99.9062 73.6359 99.6122 73.4395C99.3182 73.243 99.089 72.9638 98.9537 72.6372C98.8184 72.3105 98.783 71.9511 98.852 71.6043C98.921 71.2575 99.0912 70.939 99.3413 70.6889C99.5913 70.4389 99.9098 70.2687 100.257 70.1997C100.603 70.1307 100.963 70.1661 101.29 70.3014C101.616 70.4367 101.895 70.6659 102.092 70.9598C102.288 71.2538 102.393 71.5995 102.393 71.953C102.393 72.427 102.204 72.8814 101.869 73.2166C101.534 73.5517 101.079 73.7403 100.605 73.7408ZM10.9479 76.1947C10.9033 76.0866 10.8474 75.9835 10.781 75.8872C10.7178 75.7885 10.6435 75.6973 10.5594 75.6155C10.3508 75.4085 10.0947 75.2557 9.81341 75.1705C9.53213 75.0852 9.23425 75.0702 8.94582 75.1267C8.83168 75.1496 8.71993 75.1831 8.61202 75.2268C8.50451 75.2717 8.40155 75.3269 8.30453 75.3914C8.10912 75.5235 7.94082 75.6918 7.80872 75.8872C7.74419 75.9842 7.68908 76.0872 7.64415 76.1947C7.60046 76.3026 7.56695 76.4143 7.54405 76.5285C7.52044 76.6438 7.50851 76.7611 7.50843 76.8788C7.50909 77.3527 7.69769 77.807 8.03287 78.1421C8.11463 78.2261 8.20578 78.3005 8.30452 78.3637C8.40084 78.43 8.50391 78.486 8.61201 78.5306C8.71988 78.5744 8.83164 78.6079 8.94581 78.6307C9.06107 78.6545 9.17845 78.6665 9.29615 78.6665C9.77005 78.6658 10.2243 78.4772 10.5594 78.1421C10.8945 77.807 11.0831 77.3527 11.0839 76.8788C11.0838 76.7611 11.0718 76.6437 11.048 76.5285C11.0252 76.4143 10.9917 76.3026 10.9479 76.1947Z" fill="black"/>
</svg>
